<svg width="126" height="140" viewBox="0 0 126 140" fill="none" xmlns="http://www.w3.org/2000/svg">
<mask id="mask0_10_12" style="mask-type:alpha" maskUnits="userSpaceOnUse" x="0" y="0" width="126" height="140">
<rect width="126" height="140" fill="#D9D9D9"/>
</mask>
<g mask="url(#mask0_10_12)">
<path d="M0.2 -9.53674e-06H33.8C44.7333 -9.53674e-06 52.9333 2.93333 58.4 8.8C63.8667 14.6667 66.6 23.2667 66.6 34.6V105.4C66.6 116.733 63.8667 125.333 58.4 131.2C52.9333 137.067 44.7333 140 33.8 140H0.2V-9.53674e-06ZM33.4 120C37 120 39.7333 118.933 41.6 116.8C43.6 114.667 44.6 111.2 44.6 106.4V33.6C44.6 28.8 43.6 25.3333 41.6 23.2C39.7333 21.0667 37 20 33.4 20H22.2V120H33.4Z" fill="#19C587"/>
<path d="M67.5 0H24V11.5H49V32H67.5V0Z" fill="#19C587"/>
<path d="M67.5 140H24V128.5H49V108H67.5V140Z" fill="#19C587"/>
<path d="M66.2 -9.53674e-06H126.2V20H88.2V57H118.4V77H88.2V120H126.2V140H66.2V-9.53674e-06Z" fill="#03071E"/>
<circle cx="66" cy="70" r="17" fill="#03071E"/>
</g>
</svg>
