<svg width="441" height="140" viewBox="0 0 441 140" fill="none" xmlns="http://www.w3.org/2000/svg">
<mask id="mask0_3_16" style="mask-type:alpha" maskUnits="userSpaceOnUse" x="0" y="0" width="441" height="140">
<rect width="441" height="140" fill="#D9D9D9"/>
</mask>
<g mask="url(#mask0_3_16)">
<path d="M0.2 -9.53674e-06H22.2V59L50.2 -9.53674e-06H72.2L46 51.4L72.6 140H49.6L31 77.6L22.2 95.4V140H0.2V-9.53674e-06ZM111.688 142C100.888 142 92.6208 138.933 86.8875 132.8C81.1542 126.667 78.2875 118 78.2875 106.8V33.2C78.2875 22 81.1542 13.3333 86.8875 7.19999C92.6208 1.06666 100.888 -2.00001 111.688 -2.00001C122.488 -2.00001 130.754 1.06666 136.488 7.19999C142.221 13.3333 145.088 22 145.088 33.2V106.8C145.088 118 142.221 126.667 136.488 132.8C130.754 138.933 122.488 142 111.688 142ZM111.688 122C119.288 122 123.087 117.4 123.087 108.2V31.8C123.087 22.6 119.288 18 111.688 18C104.088 18 100.288 22.6 100.288 31.8V108.2C100.288 117.4 104.088 122 111.688 122ZM159.966 -9.53674e-06H193.566C204.499 -9.53674e-06 212.699 2.93333 218.166 8.8C223.632 14.6667 226.366 23.2667 226.366 34.6V105.4C226.366 116.733 223.632 125.333 218.166 131.2C212.699 137.067 204.499 140 193.566 140H159.966V-9.53674e-06ZM193.166 120C196.766 120 199.499 118.933 201.366 116.8C203.366 114.667 204.366 111.2 204.366 106.4V33.6C204.366 28.8 203.366 25.3333 201.366 23.2C199.499 21.0667 196.766 20 193.166 20H181.966V120H193.166Z" fill="#19C587"/>
<path d="M227.5 0H184V11.5H209V32H227.5V0Z" fill="#19C587"/>
<path d="M227.5 140H184V128.5H209V108H227.5V140Z" fill="#19C587"/>
<path d="M226.2 -9.53674e-06H286.2V20H248.2V57H278.4V77H248.2V120H286.2V140H226.2V-9.53674e-06ZM318.647 68.4L294.447 -9.53674e-06H317.647L332.447 45.2H332.847L348.047 -9.53674e-06H368.847L344.647 68.4L370.047 140H346.847L330.847 91.2H330.447L314.047 140H293.247L318.647 68.4ZM380.497 -9.53674e-06H440.497V20H402.497V57H432.697V77H402.497V120H440.497V140H380.497V-9.53674e-06Z" fill="#03071E"/>
<circle cx="226" cy="70" r="17" fill="#03071E"/>
</g>
</svg>
